<svg class="border shadow-md" viewBox="0 0 604.5600000000001 604.5600000000001" style="width: 604.56px; height: 604.56px;" xmlns="http://www.w3.org/2000/svg" preserveAspectRatio="none"><rect class="bg" id="bg" x="0" y="0" width="604.5600000000001" height="604.5600000000001" fill="#ffffff"/><g transform="rotate(0 302.28000000000003 302.28000000000003)"><path id="-1" d="M -402.28 -30.46 S -333.00 -60.68&#10;            0.00 -30.46 191.14 -60.68&#10;            402.28 -30.46 593.42 -62.46&#10;            804.56 -30.46 917.84 -83.46&#10;            1206.84 -30.46 h 110 V 804.5600000000001 H -402.28 Z" fill="#D6D6D6"/><path id="0" d="M -402.28 30.00 S -391.00 -0.23&#10;            0.00 30.00 133.28 -15.00&#10;            402.28 30.00 397.56 -0.23&#10;            804.56 30.00 809.84 -13.00&#10;            1206.84 30.00 h 110 V 804.5600000000001 H -402.28 Z" fill="#cfcfcf"/><path id="1" d="M -402.28 90.46 S -321.00 60.23&#10;            0.00 90.46 191.14 60.23&#10;            402.28 90.46 593.42 60.23&#10;            804.56 90.46 947.84 60.23&#10;            1206.84 90.46 h 110 V 804.5600000000001 H -402.28 Z" fill="#c8c8c8"/><path id="2" d="M -402.28 150.91 S -313.00 120.68&#10;            0.00 150.91 191.14 105.91&#10;            402.28 150.91 593.42 101.91&#10;            804.56 150.91 926.84 100.91&#10;            1206.84 150.91 h 110 V 804.5600000000001 H -402.28 Z" fill="#c1c1c1"/><path id="3" d="M -402.28 211.37 S -244.00 181.14&#10;            0.00 211.37 191.14 151.37&#10;            402.28 211.37 593.42 172.37&#10;            804.56 211.37 995.70 179.37&#10;            1206.84 211.37 h 110 V 804.5600000000001 H -402.28 Z" fill="#bababa"/><path id="4" d="M -402.28 271.82 S -302.00 241.60&#10;            0.00 271.82 191.14 241.60&#10;            402.28 271.82 593.42 227.82&#10;            804.56 271.82 848.84 231.82&#10;            1206.84 271.82 h 110 V 804.5600000000001 H -402.28 Z" fill="#b3b3b3"/><path id="5" d="M -402.28 332.28 S -211.14 302.05&#10;            0.00 332.28 169.28 302.05&#10;            402.28 332.28 394.56 302.05&#10;            804.56 332.28 995.70 302.05&#10;            1206.84 332.28 h 110 V 804.5600000000001 H -402.28 Z" fill="#acacac"/><path id="6" d="M -402.28 392.74 S -394.00 362.51&#10;            0.00 392.74 191.14 362.51&#10;            402.28 392.74 593.42 362.51&#10;            804.56 392.74 995.70 362.51&#10;            1206.84 392.74 h 110 V 804.5600000000001 H -402.28 Z" fill="#a5a5a5"/><path id="7" d="M -402.28 453.19 S -211.14 417.19&#10;            0.00 453.19 191.14 422.19&#10;            402.28 453.19 551.56 422.96&#10;            804.56 453.19 923.84 422.96&#10;            1206.84 453.19 h 110 V 804.5600000000001 H -402.28 Z" fill="#9e9e9e"/><path id="8" d="M -402.28 513.65 S -211.14 483.42&#10;            0.00 513.65 130.28 465.65&#10;            402.28 513.65 489.56 479.65&#10;            804.56 513.65 995.70 467.65&#10;            1206.84 513.65 h 110 V 804.5600000000001 H -402.28 Z" fill="#979797"/><path id="9" d="M -402.28 574.10 S -402.00 532.10&#10;            0.00 574.10 191.14 543.88&#10;            402.28 574.10 593.42 542.10&#10;            804.56 574.10 995.70 543.88&#10;            1206.84 574.10 h 110 V 804.5600000000001 H -402.28 Z" fill="#909090"/></g></svg>