<svg class="border shadow-md" viewBox="0 0 604.5600000000001 604.5600000000001" style="width: 604.56px; height: 604.56px;" xmlns="http://www.w3.org/2000/svg" preserveAspectRatio="none"><rect class="bg" id="bg" x="0" y="0" width="604.5600000000001" height="604.5600000000001" fill="#ffffff"/><g transform="rotate(0 302.28000000000003 302.28000000000003)"><path id="-1" d="M -402.28 -30.46 S -211.14 -60.68&#10;            0.00 -30.46 191.14 -60.68&#10;            402.28 -30.46 593.42 -60.68&#10;            804.56 -30.46 846.84 -60.68&#10;            1206.84 -30.46 h 110 V 804.5600000000001 H -402.28 Z" fill="#8C8C8C"/><path id="0" d="M -402.28 30.00 S -211.14 -21.00&#10;            0.00 30.00 191.14 -11.00&#10;            402.28 30.00 553.56 -0.23&#10;            804.56 30.00 995.70 -2.00&#10;            1206.84 30.00 h 110 V 804.5600000000001 H -402.28 Z" fill="#929292"/><path id="1" d="M -402.28 90.46 S -252.00 34.46&#10;            0.00 90.46 157.28 60.23&#10;            402.28 90.46 593.42 60.23&#10;            804.56 90.46 995.70 53.46&#10;            1206.84 90.46 h 110 V 804.5600000000001 H -402.28 Z" fill="#989898"/><path id="2" d="M -402.28 150.91 S -409.00 120.68&#10;            0.00 150.91 191.14 120.68&#10;            402.28 150.91 444.56 120.68&#10;            804.56 150.91 995.70 96.91&#10;            1206.84 150.91 h 110 V 804.5600000000001 H -402.28 Z" fill="#9e9e9e"/><path id="3" d="M -402.28 211.37 S -211.14 181.14&#10;            0.00 211.37 96.28 167.37&#10;            402.28 211.37 593.42 153.37&#10;            804.56 211.37 931.84 175.37&#10;            1206.84 211.37 h 110 V 804.5600000000001 H -402.28 Z" fill="#a4a4a4"/><path id="4" d="M -402.28 271.82 S -261.00 241.60&#10;            0.00 271.82 191.14 229.82&#10;            402.28 271.82 593.42 241.60&#10;            804.56 271.82 995.70 234.82&#10;            1206.84 271.82 h 110 V 804.5600000000001 H -402.28 Z" fill="#aaaaaa"/><path id="5" d="M -402.28 332.28 S -384.00 302.05&#10;            0.00 332.28 191.14 302.05&#10;            402.28 332.28 593.42 276.28&#10;            804.56 332.28 931.84 302.05&#10;            1206.84 332.28 h 110 V 804.5600000000001 H -402.28 Z" fill="#b0b0b0"/><path id="6" d="M -402.28 392.74 S -211.14 350.74&#10;            0.00 392.74 113.28 362.51&#10;            402.28 392.74 423.56 360.74&#10;            804.56 392.74 844.84 362.51&#10;            1206.84 392.74 h 110 V 804.5600000000001 H -402.28 Z" fill="#b6b6b6"/><path id="7" d="M -402.28 453.19 S -211.14 422.96&#10;            0.00 453.19 191.14 420.19&#10;            402.28 453.19 593.42 422.96&#10;            804.56 453.19 889.84 422.96&#10;            1206.84 453.19 h 110 V 804.5600000000001 H -402.28 Z" fill="#bcbcbc"/><path id="8" d="M -402.28 513.65 S -211.14 483.42&#10;            0.00 513.65 191.14 479.65&#10;            402.28 513.65 593.42 483.42&#10;            804.56 513.65 995.70 466.65&#10;            1206.84 513.65 h 110 V 804.5600000000001 H -402.28 Z" fill="#c2c2c2"/><path id="9" d="M -402.28 574.10 S -211.14 543.88&#10;            0.00 574.10 191.14 543.88&#10;            402.28 574.10 593.42 543.88&#10;            804.56 574.10 995.70 543.88&#10;            1206.84 574.10 h 110 V 804.5600000000001 H -402.28 Z" fill="#c8c8c8"/></g></svg>